<?xml version="1.0" encoding="UTF-8"?><svg id="Ebene_2" xmlns="http://www.w3.org/2000/svg" viewBox="0 0 703.66 783.55"><g id="Ebene_1-2"><path d="M681.75,123.19l-160.18,63.48c-112.34,44.52-174.38,161.49-153.74,276.01-6.41-8.47-13.09-16.55-19.7-24.56-24.12-29.2-46.91-56.79-50.32-97.85-2.88-34.63,8.46-70.85,33.79-108.16l66.49-10.69c94.99-15.25,162.61-97.32,162.61-190.55,0-10.18-.8-20.49-2.47-30.87l-105.93,17.02c-84.73,13.6-142.38,93.32-128.77,178.05l.94,5.89c-8.76,11.2-16.38,22.38-22.9,33.5l.77-30.33C305.05,97.45,220.76,8.78,114.08,6.07l-2.72,107.25c-2.18,85.79,65.61,157.1,151.39,159.27l20.62.52c-8.29,23.35-11.52,46.44-9.63,69.16.59,7.22,1.69,14.06,3.2,20.59-26.01-19.64-55.88-35.08-88.92-45.04l-167.13-50.35-7.61,25.27c-49.45,164.1,43.51,337.21,207.61,386.65l119.44,35.99c-9.91,15.82-21.41,32.03-34.49,48.61-4.14,5.23-3.24,12.83,1.99,16.96,2.22,1.75,4.86,2.6,7.48,2.6,3.56,0,7.1-1.58,9.48-4.6,38.83-49.18,64.79-96.13,77.17-139.55,7.34-25.8,10.01-50.83,7.99-74.7l97.63-38.68c159.33-63.14,237.31-243.49,174.17-402.83ZM371.29,94.02c20.41-28.22,50.58-46.8,84.97-52.32l79.42-12.76c.01.64.02,1.29.02,1.93,0,39.51-14.13,78.01-39.79,108.39-25.92,30.68-62.06,51.1-101.79,57.48l-43.88,7.05-1.09-6.77-.94-5.92c-5.52-34.38,2.67-68.86,23.08-97.08ZM277.35,203.5l-1.13,44.42-12.83-.32c-34.82-.89-67.21-15.27-91.2-40.51-23.99-25.25-36.72-58.32-35.84-93.14l2.04-80.42c35.3,6.15,67.58,23.36,92.72,49.8,30.96,32.57,47.38,75.25,46.24,120.17ZM353.13,693.55c-2.58-1.08-7.83-2.78-7.83-2.78l-117.2-35.31c-36.89-11.12-70.49-29.12-99.87-53.5-28.38-23.56-51.67-52.06-69.2-84.72-17.54-32.66-28.44-67.82-32.39-104.49-4.1-37.96-.54-75.91,10.57-112.8l.4-1.33,143.2,43.14c33.38,10.06,63.79,26.34,90.36,48.4,12.64,10.49,35.22,34.06,35.22,34.06,0,0,15.26,19.77,23.12,29.28,22.01,26.64,44.76,54.18,53.4,93.46,9.6,43.61-.42,92.71-29.78,146.59ZM678.59,243.9c-.85,36.88-8.73,72.83-23.44,106.86-14.72,34.02-35.51,64.39-61.8,90.27-27.2,26.78-59.16,47.55-94.98,61.75l-80.44,31.87-13.18-33.26c-11.17-28.19-16.49-57.71-15.8-87.74.66-29.03,6.87-57.32,18.45-84.1,11.58-26.78,27.94-50.68,48.63-71.05,21.41-21.07,46.56-37.42,74.75-48.59l135.94-53.87c8.56,28.55,12.55,58.01,11.87,87.86Z"/></g></svg>