<?xml version="1.0" encoding="UTF-8"?>
<svg id="Ebene_1" data-name="Ebene 1" xmlns="http://www.w3.org/2000/svg" viewBox="0 0 512 512">
  <defs>
    <style>
      .cls-1 {
        fill: #6f8e10;
      }

      .cls-2 {
        fill: #096830;
      }

      .cls-3 {
        fill: #cf4033;
      }

      .cls-4 {
        fill: #b2d024;
      }

      .cls-5 {
        fill: #fc3;
      }

      .cls-6 {
        fill: #9c9;
      }
    </style>
  </defs>
  <path class="cls-6" d="M10.5,160.51h491v281.02c0,22.65-18.39,41.04-41.04,41.04H51.54c-22.65,0-41.04-18.39-41.04-41.04V160.51h0Z"/>
  <path class="cls-4" d="M454.35,66.14H57.65c-26.04,0-47.15,21.11-47.15,47.15v47.23h491v-47.23c0-26.04-21.11-47.15-47.15-47.15Z"/>
  <path class="cls-2" d="M256,443.93c-5.52,0-10-4.48-10-10v-73c0-5.52,4.48-10,10-10s10,4.48,10,10v73c0,5.52-4.48,10-10,10Z"/>
  <path class="cls-3" d="M355.94,235.67l-6.05,31.77c-8.22,43.12-45.95,73.15-88.3,73.15-1.85,0-3.72-.06-5.59-.18-1.87.12-3.73.18-5.59.18-42.34,0-80.07-30.03-88.29-73.15l-6.05-31.77,17.31-3.3c13.64-2.6,27.11-1.18,39.2,3.42,20.28,7.71,36.67,24.39,43.43,46.11,6.75-21.72,23.14-38.4,43.42-46.11,12.09-4.6,25.56-6.02,39.2-3.42l17.31,3.3Z"/>
  <path class="cls-5" d="M216.13,226.44c11.47,4.36,22,11.36,30.47,20.25,3.49,3.67,6.64,7.66,9.4,11.92,2.76-4.25,5.91-8.25,9.4-11.92,8.47-8.89,19-15.89,30.47-20.25.6-.23,1.2-.43,1.8-.64-8.77-13.74-24.16-22.86-41.67-22.86s-32.89,9.12-41.66,22.86c.6.21,1.2.41,1.79.64Z"/>
  <g>
    <rect class="cls-1" x="94.18" y="29.43" width="41.3" height="79.16" rx="12" ry="12"/>
    <rect class="cls-1" x="376.52" y="29.43" width="41.3" height="79.16" rx="12" ry="12"/>
  </g>
</svg>