<?xml version="1.0" encoding="UTF-8"?>
<svg id="Ebene_1" data-name="Ebene 1" xmlns="http://www.w3.org/2000/svg" viewBox="0 0 512 512">
  <defs>
    <style>
      .cls-1 {
        fill: #6f8e10;
      }

      .cls-2 {
        fill: #d1edd1;
      }

      .cls-3 {
        fill: #b2d024;
      }

      .cls-4 {
        fill: #fc3;
      }
    </style>
  </defs>
  <path class="cls-2" d="M10.5,160.51h491v281.02c0,22.65-18.39,41.04-41.04,41.04H51.54c-22.65,0-41.04-18.39-41.04-41.04V160.51h0Z"/>
  <path class="cls-3" d="M454.35,66.14H57.65c-26.04,0-47.15,21.11-47.15,47.15v47.23h491v-47.23c0-26.04-21.11-47.15-47.15-47.15Z"/>
  <g>
    <g>
      <path class="cls-4" d="M256,256.11c-5.52,0-10-4.48-10-10v-32.94c0-5.52,4.48-10,10-10s10,4.48,10,10v32.94c0,5.52-4.48,10-10,10Z"/>
      <path class="cls-4" d="M256,443.93c-5.52,0-10-4.48-10-10v-32.94c0-5.52,4.48-10,10-10s10,4.48,10,10v32.94c0,5.52-4.48,10-10,10Z"/>
      <path class="cls-4" d="M366.38,333.55h-32.94c-5.52,0-10-4.48-10-10s4.48-10,10-10h32.94c5.52,0,10,4.48,10,10s-4.48,10-10,10Z"/>
      <path class="cls-4" d="M178.56,333.55h-32.94c-5.52,0-10-4.48-10-10s4.48-10,10-10h32.94c5.52,0,10,4.48,10,10s-4.48,10-10,10Z"/>
      <path class="cls-4" d="M310.76,278.79c-2.56,0-5.12-.98-7.07-2.93-3.91-3.91-3.91-10.24,0-14.14l23.29-23.29c3.91-3.9,10.24-3.9,14.14,0,3.91,3.91,3.91,10.24,0,14.14l-23.29,23.29c-1.95,1.95-4.51,2.93-7.07,2.93Z"/>
      <path class="cls-4" d="M177.95,411.6c-2.56,0-5.12-.98-7.07-2.93-3.91-3.91-3.91-10.24,0-14.14l23.29-23.29c3.91-3.9,10.24-3.9,14.14,0,3.91,3.91,3.91,10.24,0,14.14l-23.29,23.29c-1.95,1.95-4.51,2.93-7.07,2.93Z"/>
      <path class="cls-4" d="M334.05,411.6c-2.56,0-5.12-.98-7.07-2.93l-23.29-23.29c-3.91-3.91-3.91-10.24,0-14.14,3.91-3.9,10.24-3.9,14.14,0l23.29,23.29c3.91,3.91,3.91,10.24,0,14.14-1.95,1.95-4.51,2.93-7.07,2.93Z"/>
      <path class="cls-4" d="M201.24,278.79c-2.56,0-5.12-.98-7.07-2.93l-23.29-23.29c-3.91-3.91-3.91-10.24,0-14.14,3.91-3.9,10.24-3.9,14.14,0l23.29,23.29c3.91,3.91,3.91,10.24,0,14.14-1.95,1.95-4.51,2.93-7.07,2.93Z"/>
    </g>
    <circle class="cls-4" cx="256" cy="323.55" r="51.44"/>
  </g>
  <g>
    <rect class="cls-1" x="94.18" y="29.43" width="41.3" height="79.16" rx="12" ry="12"/>
    <rect class="cls-1" x="376.52" y="29.43" width="41.3" height="79.16" rx="12" ry="12"/>
  </g>
</svg>