<?xml version="1.0" encoding="UTF-8"?>
<svg id="Ebene_1" data-name="Ebene 1" xmlns="http://www.w3.org/2000/svg" xmlns:xlink="http://www.w3.org/1999/xlink" viewBox="0 0 512 512">
  <defs>
    <style>
      .cls-1 {
        fill: none;
      }

      .cls-2 {
        fill: #b5eaf7;
      }

      .cls-3 {
        clip-path: url(#clippath);
      }
    </style>
    <clipPath id="clippath">
      <path class="cls-1" d="M389.35,252.34l-54.63-94.62L243.67,0l-91.05,157.72-54.63,94.62c-63.71,110.34,10.72,251.77,138.03,257,2.54.1,5.09.16,7.66.16s5.11-.05,7.65-.16c127.31-5.23,201.74-146.66,138.03-257.01ZM308.32,460.51c-9.13,0-16.54-7.4-16.54-16.54s7.4-16.54,16.54-16.54,16.54,7.4,16.54,16.54-7.4,16.54-16.54,16.54ZM343.89,430.94c-14.67,0-26.55-11.89-26.55-26.55s11.89-26.55,26.55-26.55,26.55,11.89,26.55,26.55-11.89,26.55-26.55,26.55Z"/>
    </clipPath>
  </defs>
  <path class="cls-1" d="M389.35,252.34l-54.63-94.62L243.67,0l-91.05,157.72-54.63,94.62c-63.71,110.34,10.72,251.77,138.03,257,2.54.1,5.09.16,7.66.16s5.11-.05,7.65-.16c127.31-5.23,201.74-146.66,138.03-257.01ZM308.32,460.51c-9.13,0-16.54-7.4-16.54-16.54s7.4-16.54,16.54-16.54,16.54,7.4,16.54,16.54-7.4,16.54-16.54,16.54ZM343.89,430.94c-14.67,0-26.55-11.89-26.55-26.55s11.89-26.55,26.55-26.55,26.55,11.89,26.55,26.55-11.89,26.55-26.55,26.55Z"/>
  <g class="cls-3">
    <path class="cls-2" d="M447.85,375.23s-44.22-35.41-65.64-32.89c-18.22,2.14-28.32,34.15-46.79,32.89-18.47-1.26-28.32-34.15-46.79-32.89-18.47,1.26-28.32,34.15-46.79,32.89s-28.32-34.15-46.79-32.89-28.3,34.07-46.79,32.89-28.19-32.63-46.79-32.89-51.68,32.89-51.68,32.89v136.77h398.05v-136.77Z"/>
  </g>
  <path class="cls-2" d="M243.67,20l82.39,142.71,54.63,94.62c14.51,25.14,22.07,53.52,21.87,82.09-.2,27.1-7.27,54.09-20.46,78.05-12.84,23.34-31.16,43.14-52.97,57.27-23.39,15.16-49.71,23.43-78.22,24.6-2.4.1-4.84.15-7.24.15s-4.85-.05-7.25-.15c-28.51-1.17-54.83-9.45-78.22-24.61-21.81-14.13-40.12-33.93-52.97-57.27-13.19-23.96-20.26-50.95-20.45-78.05-.21-28.56,7.36-56.95,21.87-82.08l54.63-94.62L243.67,20M243.67,0l-91.05,157.72-54.63,94.62c-63.71,110.34,10.72,251.77,138.03,257.01,2.54.1,5.09.16,7.66.16s5.11-.05,7.65-.16c127.31-5.23,201.74-146.66,138.03-257.01l-54.63-94.62L243.67,0h0Z"/>
</svg>