<?xml version="1.0" encoding="UTF-8"?>
<svg id="Ebene_1" data-name="Ebene 1" xmlns="http://www.w3.org/2000/svg" viewBox="0 0 512 512">
  <defs>
    <style>
      .cls-1 {
        fill: #6f8e10;
      }

      .cls-2 {
        fill: #b2d024;
      }

      .cls-3 {
        fill: #b5eaf7;
      }

      .cls-4 {
        fill: #9c9;
      }
    </style>
  </defs>
  <path class="cls-4" d="M10.5,160.51h491v281.02c0,22.65-18.39,41.04-41.04,41.04H51.54c-22.65,0-41.04-18.39-41.04-41.04V160.51h0Z"/>
  <path class="cls-2" d="M454.35,66.14H57.65c-26.04,0-47.15,21.11-47.15,47.15v47.23h491v-47.23c0-26.04-21.11-47.15-47.15-47.15Z"/>
  <path class="cls-3" d="M357.13,303.83c-7.24,0-13.55,3.91-16.98,9.72h-60.01l26.6-26.6h30.67c5.52,0,10-4.48,10-10s-4.48-10-10-10h-10.67l14.38-14.38c3.91-3.91,3.91-10.24,0-14.14-3.91-3.9-10.24-3.9-14.14,0l-14.5,14.5v-10.67c0-5.52-4.48-10-10-10s-10,4.48-10,10v30.67l-26.48,26.48v-59.89c5.81-3.43,9.72-9.74,9.72-16.98,0-10.89-8.83-19.72-19.72-19.72s-19.72,8.83-19.72,19.72c0,7.24,3.91,13.55,9.72,16.98v59.89l-26.48-26.48v-30.67c0-5.52-4.48-10-10-10s-10,4.48-10,10v10.67l-14.5-14.5c-3.91-3.9-10.24-3.9-14.14,0-3.91,3.91-3.91,10.24,0,14.14l14.38,14.38h-10.67c-5.52,0-10,4.48-10,10s4.48,10,10,10h30.67l26.6,26.6h-59.68c-3.43-5.81-9.74-9.72-16.98-9.72-10.89,0-19.72,8.83-19.72,19.72s8.83,19.72,19.72,19.72c7.24,0,13.55-3.91,16.98-9.72h59.68l-26.69,26.68h-30.58c-5.52,0-10,4.48-10,10s4.48,10,10,10h10.58l-10.63,10.63c-3.91,3.91-3.91,10.24,0,14.14,1.95,1.95,4.51,2.93,7.07,2.93s5.12-.98,7.07-2.93l10.84-10.84v10.75c0,5.52,4.48,10,10,10s10-4.48,10-10v-30.75l26.48-26.48v59.98c-5.81,3.43-9.72,9.74-9.72,16.98,0,10.89,8.83,19.72,19.72,19.72s19.72-8.83,19.72-19.72c0-7.24-3.91-13.55-9.72-16.98v-59.98l26.48,26.48v30.75c0,5.52,4.48,10,10,10s10-4.48,10-10v-10.75l10.84,10.84c1.95,1.95,4.51,2.93,7.07,2.93s5.12-.98,7.07-2.93c3.91-3.91,3.91-10.24,0-14.14l-10.63-10.63h10.58c5.52,0,10-4.48,10-10s-4.48-10-10-10h-30.58l-26.69-26.68h60.01c3.43,5.81,9.74,9.72,16.98,9.72,10.89,0,19.72-8.83,19.72-19.72s-8.83-19.72-19.72-19.72Z"/>
  <g>
    <rect class="cls-1" x="94.18" y="29.43" width="41.3" height="79.16" rx="12" ry="12"/>
    <rect class="cls-1" x="376.52" y="29.43" width="41.3" height="79.16" rx="12" ry="12"/>
  </g>
</svg>