<?xml version="1.0" encoding="UTF-8"?>
<svg  xmlns="http://www.w3.org/2000/svg" viewBox="0 0 512 512">
  
  
  <path d="M437.02,74.98C388.67,26.63,324.38,0,256,0S123.33,26.63,74.98,74.98C26.63,123.33,0,187.62,0,256s26.63,132.67,74.98,181.02c48.35,48.35,112.64,74.98,181.02,74.98s132.67-26.63,181.02-74.98c48.35-48.35,74.98-112.64,74.98-181.02s-26.63-132.67-74.98-181.02ZM256,490.02c-129.04,0-234.02-104.98-234.02-234.02S126.96,21.98,256,21.98s234.02,104.98,234.02,234.02-104.98,234.02-234.02,234.02Z"/>
</svg>