<?xml version="1.0" encoding="UTF-8"?>
<svg id="Ebene_1" data-name="Ebene 1" xmlns="http://www.w3.org/2000/svg" viewBox="0 0 512 512">
  <path d="M256,512c-68.38,0-132.67-26.63-181.02-74.98C26.63,388.67,0,324.38,0,256S26.63,123.33,74.98,74.98C123.33,26.63,187.62,0,256,0s132.67,26.63,181.02,74.98c48.35,48.35,74.98,112.64,74.98,181.02s-26.63,132.67-74.98,181.02c-48.35,48.35-112.64,74.98-181.02,74.98ZM256,21.98C126.96,21.98,21.98,126.96,21.98,256s104.98,234.02,234.02,234.02,234.02-104.98,234.02-234.02S385.04,21.98,256,21.98Z"/>
  <path d="M256,432.17c-27.01,0-48.99-21.98-48.99-49v-78.18h-78.18c-27.02,0-49-21.98-49-48.99,0-13.09,5.1-25.4,14.35-34.65,9.25-9.25,21.56-14.35,34.65-14.35h78.18v-78.18c0-27.01,21.98-48.99,48.99-48.99,13.1,0,25.4,5.1,34.65,14.36,9.25,9.25,14.35,21.55,14.35,34.63v78.18h78.18c27.02,0,49,21.98,49,49s-21.98,48.99-49,48.99h-78.18v78.18c0,27.02-21.98,49-48.99,49ZM128.83,228.98c-7.22,0-14.01,2.81-19.11,7.91-5.1,5.1-7.91,11.89-7.91,19.11,0,14.9,12.12,27.01,27.02,27.01h100.16v100.16c0,14.9,12.12,27.02,27.01,27.02s27.01-12.12,27.01-27.02v-100.16h100.16c14.9,0,27.02-12.12,27.02-27.01s-12.12-27.02-27.02-27.02h-100.16v-100.16c0-7.21-2.81-14-7.91-19.1-5.1-5.1-11.88-7.91-19.1-7.91-14.9,0-27.01,12.12-27.01,27.01v100.16h-100.16Z"/>
</svg>