<?xml version="1.0" encoding="UTF-8"?>
<svg id="Ebene_1" data-name="Ebene 1" xmlns="http://www.w3.org/2000/svg" viewBox="0 0 512 512">
  <path d="M255.99,0L0,280.16h93.62v231.84h131.09v-117.87c0-14.45,11.76-26.22,26.22-26.22h10.13c7.23,0,13.78,2.94,18.53,7.69s7.69,11.3,7.69,18.53v117.87h131.09v-231.84h93.63L255.99,0ZM398.37,260.16v231.84h-91.09v-97.87c0-25.52-20.69-46.22-46.22-46.22h-10.13c-25.53,0-46.22,20.7-46.22,46.22v97.87h-91.09v-231.84H45.36L255.99,29.65l210.64,230.51h-68.26Z"/>
  <path d="M282.25,182.09v52.5h-52.5v-52.5h52.5M283.95,162.09h-55.91c-10.1,0-18.3,8.19-18.3,18.3v55.91c0,10.1,8.19,18.3,18.3,18.3h55.91c10.1,0,18.3-8.19,18.3-18.3v-55.91c0-10.1-8.19-18.3-18.3-18.3h0Z"/>
</svg>