<?xml version="1.0" encoding="UTF-8"?>
<svg id="Ebene_1" data-name="Ebene 1" xmlns="http://www.w3.org/2000/svg" viewBox="0 0 512 512">
  <defs>
    <style>
      .cls-1 {
        fill: #fc3;
      }
    </style>
  </defs>
  <circle class="cls-1" cx="256" cy="256" r="107.57"/>
  <path class="cls-1" d="M256,118.01c-5.52,0-10-4.48-10-10V11.24c0-5.52,4.48-10,10-10s10,4.48,10,10v96.77c0,5.52-4.48,10-10,10Z"/>
  <path class="cls-1" d="M256,510.76c-5.52,0-10-4.48-10-10v-96.77c0-5.52,4.48-10,10-10s10,4.48,10,10v96.77c0,5.52-4.48,10-10,10Z"/>
  <path class="cls-1" d="M108.01,266H11.24c-5.52,0-10-4.48-10-10s4.48-10,10-10h96.77c5.52,0,10,4.48,10,10s-4.48,10-10,10Z"/>
  <path class="cls-1" d="M500.76,266h-96.77c-5.52,0-10-4.48-10-10s4.48-10,10-10h96.77c5.52,0,10,4.48,10,10s-4.48,10-10,10Z"/>
  <path class="cls-1" d="M151.36,161.36c-2.56,0-5.12-.98-7.07-2.93l-68.43-68.43c-3.91-3.9-3.91-10.24,0-14.14,3.91-3.91,10.24-3.91,14.14,0l68.43,68.43c3.91,3.91,3.91,10.24,0,14.14-1.95,1.95-4.51,2.93-7.07,2.93Z"/>
  <path class="cls-1" d="M429.07,439.07c-2.56,0-5.12-.98-7.07-2.93l-68.43-68.43c-3.91-3.91-3.91-10.24,0-14.14,3.91-3.9,10.24-3.9,14.14,0l68.43,68.43c3.91,3.91,3.91,10.24,0,14.14-1.95,1.95-4.51,2.93-7.07,2.93Z"/>
  <path class="cls-1" d="M360.64,161.36c-2.56,0-5.12-.98-7.07-2.93-3.91-3.91-3.91-10.24,0-14.14l68.43-68.43c3.91-3.9,10.24-3.9,14.14,0,3.91,3.91,3.91,10.24,0,14.14l-68.43,68.43c-1.95,1.95-4.51,2.93-7.07,2.93Z"/>
  <path class="cls-1" d="M82.93,439.07c-2.56,0-5.12-.98-7.07-2.93-3.91-3.91-3.91-10.24,0-14.14l68.43-68.43c3.91-3.9,10.24-3.9,14.14,0,3.91,3.91,3.91,10.24,0,14.14l-68.43,68.43c-1.95,1.95-4.51,2.93-7.07,2.93Z"/>
</svg>