<?xml version="1.0" encoding="UTF-8"?><svg id="Ebene_1" xmlns="http://www.w3.org/2000/svg" viewBox="0 0 512 512"><defs><style>.cls-1{fill:none;}.cls-2{fill:#a6bb40;}.cls-3{fill:#32441a;}.cls-4{fill:#32441a;}</style></defs><path class="cls-3" d="M300.08,103c-21.36-9.24-43.58-13.61-65.45-13.6-63.87,0-124.69,37.28-151.65,99.63l-15.96,36.91h.01c-.06.14-.1.28-.15.41-.05.14-.11.29-.16.43-.06.2-.12.41-.18.62-.05.17-.1.35-.14.52-.03.18-.06.35-.09.53-.04.21-.08.43-.1.65-.02.14-.03.29-.04.44-.02.24-.04.49-.04.73,0,.06,0,.12,0,.18v197.26c7.24,7.99,14.97,15.53,23.16,22.56v-214.71l45.48,19.67c26.55,11.48,54.18,16.91,81.39,16.91,79.42,0,155.05-46.36,188.57-123.9l-104.64-45.24ZM315.82,220.91c-29.84,19.23-64.31,29.4-99.67,29.4-25.05,0-49.52-5.09-72.73-15.13l-40.53-17.52c6.81-4.98,15.46-8.76,26.22-11.53,20.62-5.31,45.73-6.22,72.32-7.18,42.19-1.53,85.81-3.1,118.2-22.81,5.47-3.33,7.2-10.45,3.88-15.91-3.33-5.47-10.45-7.2-15.92-3.88-27.22,16.57-67.78,18.04-107,19.46-33.21,1.2-67.11,2.43-93.48,13.28,11.47-22.39,28.49-41.25,49.68-54.9,23.3-15.02,50.22-22.96,77.85-22.96,9.77,0,19.44.99,28.92,2.97,9.49,1.97,18.79,4.92,27.85,8.84l83.42,36.07c-14.49,24.95-34.6,46.07-59.01,61.8Z"/><path class="cls-2" d="M339.11,215.92c-21.35-9.23-43.57-13.6-65.45-13.6-63.86,0-124.68,37.28-151.64,99.63l-15.96,36.91h0c-.06.14-.1.28-.15.42-.06.14-.11.28-.16.42-.07.21-.13.41-.18.62-.05.18-.1.35-.14.53-.04.17-.07.35-.1.52-.04.22-.07.43-.1.65-.01.15-.03.3-.04.44-.02.25-.03.49-.03.74-.01.06-.01.11-.01.17v119.48c7.42,5.43,15.15,10.47,23.16,15.07v-129.43l45.47,19.66c26.56,11.48,54.19,16.91,81.39,16.91,79.42,0,155.05-46.36,188.58-123.89l-104.65-45.25ZM354.85,333.84c-29.84,19.23-64.3,29.39-99.67,29.39-25.05,0-49.51-5.09-72.72-15.12l-40.53-17.53c6.81-4.97,15.45-8.76,26.22-11.53,20.61-5.3,45.73-6.21,72.32-7.17,42.18-1.53,85.81-3.11,118.2-22.82,5.46-3.32,7.2-10.45,3.87-15.91-3.32-5.46-10.45-7.2-15.91-3.87-27.23,16.56-67.78,18.03-107,19.45-33.22,1.2-67.11,2.44-93.49,13.28,11.48-22.38,28.5-41.24,49.69-54.9,23.3-15.01,50.22-22.95,77.84-22.95h.01c19.54,0,38.64,3.97,56.77,11.8l83.42,36.07c-14.49,24.95-34.6,46.07-59.02,61.81Z"/><circle class="cls-1" cx="256" cy="256" r="256"/><path class="cls-4" d="M256,0C114.61,0,0,114.62,0,256,0,322.07,25.03,382.29,66.12,427.71c7.24,7.99,14.97,15.53,23.16,22.56,5.12,4.4,10.42,8.6,15.88,12.58,7.42,5.43,15.15,10.47,23.16,15.07,37.58,21.68,81.18,34.08,127.68,34.08,141.38,0,256-114.62,256-256S397.38,0,256,0ZM421.58,421.58c-21.52,21.51-46.56,38.4-74.44,50.19-28.86,12.21-59.52,18.39-91.14,18.39s-62.29-6.18-91.14-18.39c-12.81-5.41-25.01-11.9-36.54-19.42-8.05-5.24-15.78-10.98-23.16-17.21-5.08-4.29-10-8.81-14.74-13.56-.38-.38-.77-.77-1.14-1.16-8.47-8.57-16.19-17.69-23.16-27.32-10.32-14.25-18.98-29.62-25.9-45.96-12.2-28.85-18.39-59.52-18.39-91.14s6.19-62.29,18.39-91.14c11.8-27.88,28.68-52.93,50.2-74.44,21.51-21.51,46.55-38.4,74.44-50.19,28.85-12.21,59.51-18.39,91.14-18.39s62.28,6.18,91.14,18.39c27.88,11.79,52.92,28.68,74.44,50.19,21.51,21.51,38.4,46.56,50.19,74.44,12.2,28.85,18.39,59.52,18.39,91.14s-6.19,62.29-18.39,91.14c-11.79,27.88-28.68,52.93-50.19,74.44Z"/></svg>