<?xml version="1.0" encoding="UTF-8"?>
<svg
  xmlns="http://www.w3.org/2000/svg"
  viewBox="0 0 512 512"
  fill="currentColor"
>
  <g>
    <path d="M339.77,88.93c-.23-.46-.49-.91-.78-1.33-27.49-45.86-86.94-60.75-132.8-33.26-45.86,27.49-60.75,86.94-33.26,132.8,8.19,13.67,19.63,25.1,33.3,33.28.43.3.88.56,1.34.79,46.27,26.76,105.47,10.95,132.23-35.31,17.35-30,17.34-66.98-.03-96.97M180.7,137.43c0-41.57,33.71-75.27,75.29-75.26,23.72,0,46.06,11.19,60.27,30.19l-105.36,105.35c-19.02-14.2-30.23-36.55-30.22-60.29M255.96,212.72c-8.62,0-17.17-1.48-25.28-4.38l96.21-96.21c13.97,39.16-6.46,82.23-45.62,96.2-8.12,2.9-16.68,4.38-25.31,4.38"/>
    <path d="M393.43,137.43C393.43,61.53,331.9,0,256,0c-75.9,0-137.43,61.53-137.44,137.43,0,60.89,40.07,114.53,98.47,131.79v206.14c0,20.23,16.4,36.64,36.64,36.64s36.64-16.4,36.64-36.64v-204.83c60.67-15.72,103.07-70.44,103.14-133.11M268.77,475.38c0,8.35-6.77,15.11-15.11,15.11s-15.11-6.77-15.11-15.11h0v-151.93h30.22v151.93ZM268.77,301.97h-30.22v-27.1h30.22v27.1ZM256,253.39c-64.02,0-115.92-51.9-115.92-115.92,0-64.02,51.9-115.92,115.92-115.92,64.02,0,115.92,51.9,115.92,115.92h0c-.05,64-51.92,115.86-115.92,115.92"/>
  </g>
</svg>
