<?xml version="1.0" encoding="UTF-8"?>
<svg id="Ebene_1" data-name="Ebene 1" xmlns="http://www.w3.org/2000/svg" viewBox="0 0 512 512">
  <path d="M256,20c31.87,0,62.77,6.24,91.86,18.54,28.1,11.89,53.34,28.9,75.02,50.58,21.68,21.68,38.7,46.92,50.58,75.02,12.3,29.08,18.54,59.99,18.54,91.86s-6.24,62.77-18.54,91.86c-11.89,28.1-28.9,53.34-50.58,75.02-21.68,21.68-46.92,38.7-75.02,50.58-29.08,12.3-59.99,18.54-91.86,18.54s-62.77-6.24-91.86-18.54c-28.1-11.89-53.34-28.9-75.02-50.58-21.68-21.68-38.7-46.92-50.58-75.02-12.3-29.08-18.54-59.99-18.54-91.86s6.24-62.77,18.54-91.86c11.89-28.1,28.9-53.34,50.58-75.02,21.68-21.68,46.92-38.7,75.02-50.58,29.08-12.3,59.99-18.54,91.86-18.54M256,0C114.62,0,0,114.62,0,256s114.62,256,256,256,256-114.62,256-256S397.38,0,256,0h0Z"/>
  <path d="M268.8,204.11s0,0,0,0c12.95,4.06,26.06,5.99,38.96,5.99,55.41,0,106.78-35.65,124.21-91.32l-68.99-21.61c-10.42-3.26-20.96-4.81-31.33-4.81-44.55,0-85.87,28.67-99.89,73.43l-1.84,5.89c-17.79-25.6-47.22-41.01-78.4-41.01-9.46,0-19.07,1.42-28.57,4.39l-62.93,19.71c15.9,50.78,62.77,83.3,113.31,83.3,11.76,0,23.72-1.76,35.53-5.46,0,0,0,0,0,0l27.13-8.5v48.88c-19.46.35-37.54,1.74-51.7,3.99-17.31,2.75-33.34,7.01-33.34,19.44,0,.14.01.27.02.41,0,.07,0,.13,0,.2,0,.03,0,.05,0,.08,0,.07,0,.14.01.21,0,.02,0,.04,0,.06,0,.1.03.19.04.29,0,.05.01.11.02.16.11.95.32,1.88.64,2.78l23.57,90.08c4.15,15.86,18.5,26.94,34.89,26.94h71.67c16.39,0,30.74-11.08,34.89-26.94l23.56-90.07c.35-.96.56-1.95.66-2.96.02-.21.05-.41.06-.62,0-.01,0-.03,0-.04,0-.03,0-.06,0-.09,0-.16.02-.33.02-.48,0-.08,0-.16,0-.24,0-.05,0-.1,0-.15-.34-12.12-16.19-16.33-33.32-19.05-14.16-2.25-32.24-3.64-51.7-3.99v-72.89l12.8,4.01ZM250.85,171.77c5.5-17.56,16.27-32.53,31.13-43.28,14.39-10.41,32.03-16.14,49.68-16.14h0c8.55,0,17.08,1.31,25.34,3.9l48.19,15.09c-7.82,14.89-18.95,27.73-32.81,37.76-18.72,13.54-41.67,20.99-64.63,20.99-11.14,0-22.23-1.71-32.98-5.07l-25.57-8.01,1.64-5.25ZM202.89,213.53c-9.63,3.02-19.58,4.55-29.56,4.55-20.57,0-41.14-6.68-57.92-18.82-11.84-8.56-21.46-19.43-28.4-31.98l41.92-13.13c7.37-2.31,14.97-3.48,22.6-3.48,15.73,0,31.45,5.11,44.28,14.39,13.25,9.58,22.84,22.92,27.75,38.58l.97,3.11-21.65,6.78ZM301.92,296.5c-.43.06-.86.12-1.3.18-.38.05-.76.11-1.14.16-.46.06-.94.12-1.42.19-.39.05-.77.1-1.16.15-.51.06-1.04.13-1.56.19-.38.05-.75.09-1.14.13-.6.07-1.22.14-1.83.2-.33.04-.66.07-1,.11-.96.1-1.94.2-2.94.29-.1,0-.21.02-.32.03-.9.09-1.82.17-2.76.25-.36.03-.73.06-1.09.09-.7.06-1.4.12-2.11.17-.43.03-.88.07-1.31.1-.66.05-1.33.1-2.01.15-.48.03-.96.06-1.44.1-.66.04-1.33.09-2,.13-.51.03-1.02.06-1.53.09-.67.04-1.35.08-2.04.11-.53.03-1.06.05-1.59.08-.7.03-1.4.07-2.11.1-.54.02-1.09.05-1.64.07-.73.03-1.46.06-2.2.08-.55.02-1.11.04-1.67.06-.76.02-1.53.05-2.3.07-.56.02-1.12.03-1.68.04-.81.02-1.63.03-2.46.05-.54.01-1.08.02-1.63.03-.92.01-1.85.02-2.79.03-.47,0-.94.01-1.42.02-1.42.01-2.86.02-4.32.02s-2.9,0-4.32-.02c-.47,0-.94-.01-1.4-.02-.94,0-1.88-.02-2.8-.03-.55,0-1.09-.02-1.63-.03-.82-.02-1.65-.03-2.46-.05-.57-.01-1.13-.03-1.7-.04-.77-.02-1.53-.04-2.28-.07-.56-.02-1.12-.04-1.67-.06-.74-.03-1.48-.05-2.21-.08-.54-.02-1.08-.04-1.61-.07-.72-.03-1.44-.06-2.15-.1-.52-.03-1.04-.05-1.55-.08-.7-.04-1.4-.07-2.09-.11-.5-.03-1-.06-1.5-.09-.69-.04-1.37-.09-2.05-.13-.46-.03-.93-.06-1.39-.09-.71-.05-1.41-.1-2.11-.15-.4-.03-.81-.06-1.2-.09-.78-.06-1.53-.12-2.29-.19-.3-.03-.62-.05-.92-.08-2.11-.18-4.14-.38-6.08-.58-.22-.02-.43-.05-.65-.07-.74-.08-1.48-.16-2.2-.24-.29-.03-.56-.07-.84-.1-.63-.07-1.26-.15-1.88-.23-.3-.04-.6-.08-.89-.11-.57-.07-1.14-.15-1.7-.22-.3-.04-.59-.08-.88-.12-.54-.07-1.07-.15-1.59-.23-.13-.02-.25-.04-.37-.06,11.54-1.71,27.61-3.13,47.83-3.46,1.74,2.93,4.93,4.9,8.59,4.9s6.85-1.97,8.59-4.9c20.22.32,36.29,1.75,47.83,3.46-.17.02-.33.05-.5.07ZM297.37,385.63c-1.85,7.07-8.24,12-15.54,12h-71.67c-7.3,0-13.69-4.93-15.54-12l-18.66-71.29s.01,0,.02,0c.7.15,1.43.29,2.17.44.25.05.52.1.77.15.52.1,1.05.2,1.6.3.29.05.58.1.88.16.57.1,1.15.2,1.73.29.27.04.54.09.81.13.87.14,1.75.28,2.67.41,16.25,2.41,37.34,3.73,59.38,3.73s43.13-1.33,59.38-3.73c.91-.13,1.78-.27,2.64-.41.29-.05.58-.09.86-.14.57-.09,1.13-.19,1.68-.29.3-.05.6-.1.89-.16.55-.1,1.1-.2,1.63-.3.24-.05.48-.09.72-.14.74-.14,1.47-.29,2.17-.44.02,0,.04,0,.06-.01l-18.65,71.29Z"/>
</svg>