<?xml version="1.0" encoding="UTF-8"?>
<svg id="Ebene_1" data-name="Ebene 1" xmlns="http://www.w3.org/2000/svg" viewBox="0 0 512 512">
  <path d="M256,512c-68.38,0-132.67-26.63-181.02-74.98C26.63,388.67,0,324.38,0,256S26.63,123.33,74.98,74.98,187.62,0,256,0s132.67,26.63,181.02,74.98c48.35,48.35,74.98,112.64,74.98,181.02s-26.63,132.67-74.98,181.02c-48.35,48.35-112.64,74.98-181.02,74.98ZM256,21.98C126.96,21.98,21.98,126.96,21.98,256s104.98,234.02,234.02,234.02,234.02-104.98,234.02-234.02S385.04,21.98,256,21.98Z"/>
  <g>
    <path d="M105.21,374.59c0,18.85,15.28,34.12,34.12,34.12h233.33c18.85,0,34.12-15.28,34.12-34.12v-170.51H105.21v170.51ZM125.21,224.07h261.58v150.51c0,7.79-6.34,14.12-14.12,14.12h-233.33c-7.79,0-14.12-6.34-14.12-14.12v-150.51Z"/>
    <path d="M243.14,372.52h25.71c8.28,0,15-6.72,15-15v-25.71c0-8.28-6.72-15-15-15h-25.71c-8.28,0-15,6.72-15,15v25.71c0,8.28,6.72,15,15,15ZM238.14,331.81c0-2.76,2.24-5,5-5h25.71c2.76,0,5,2.24,5,5v25.71c0,2.76-2.24,5-5,5h-25.71c-2.76,0-5-2.24-5-5v-25.71Z"/>
    <path d="M325.73,372.52h25.71c8.28,0,15-6.72,15-15v-25.71c0-8.28-6.72-15-15-15h-25.71c-8.28,0-15,6.72-15,15v25.71c0,8.28,6.72,15,15,15ZM320.73,331.81c0-2.76,2.24-5,5-5h25.71c2.76,0,5,2.24,5,5v25.71c0,2.76-2.24,5-5,5h-25.71c-2.76,0-5-2.24-5-5v-25.71Z"/>
    <path d="M160.56,372.52h25.71c8.28,0,15-6.72,15-15v-25.71c0-8.28-6.72-15-15-15h-25.71c-8.28,0-15,6.72-15,15v25.71c0,8.28,6.72,15,15,15ZM155.56,331.81c0-2.76,2.24-5,5-5h25.71c2.76,0,5,2.24,5,5v25.71c0,2.76-2.24,5-5,5h-25.71c-2.76,0-5-2.24-5-5v-25.71Z"/>
    <path d="M243.14,296.7h25.71c8.28,0,15-6.72,15-15v-25.71c0-8.28-6.72-15-15-15h-25.71c-8.28,0-15,6.72-15,15v25.71c0,8.28,6.72,15,15,15ZM238.14,255.99c0-2.76,2.24-5,5-5h25.71c2.76,0,5,2.24,5,5v25.71c0,2.76-2.24,5-5,5h-25.71c-2.76,0-5-2.24-5-5v-25.71Z"/>
    <path d="M325.73,296.7h25.71c8.28,0,15-6.72,15-15v-25.71c0-8.28-6.72-15-15-15h-25.71c-8.28,0-15,6.72-15,15v25.71c0,8.28,6.72,15,15,15ZM320.73,255.99c0-2.76,2.24-5,5-5h25.71c2.76,0,5,2.24,5,5v25.71c0,2.76-2.24,5-5,5h-25.71c-2.76,0-5-2.24-5-5v-25.71Z"/>
    <path d="M160.56,296.7h25.71c8.28,0,15-6.72,15-15v-25.71c0-8.28-6.72-15-15-15h-25.71c-8.28,0-15,6.72-15,15v25.71c0,8.28,6.72,15,15,15ZM155.56,255.99c0-2.76,2.24-5,5-5h25.71c2.76,0,5,2.24,5,5v25.71c0,2.76-2.24,5-5,5h-25.71c-2.76,0-5-2.24-5-5v-25.71Z"/>
    <path d="M372.66,125.51h-13.74v-9.89c0-6.81-5.52-12.33-12.33-12.33s-12.33,5.52-12.33,12.33v9.89h-65.94v-9.89c0-6.81-5.52-12.33-12.33-12.33s-12.33,5.52-12.33,12.33v9.89h-65.94v-9.89c0-6.81-5.52-12.33-12.33-12.33s-12.33,5.52-12.33,12.33v9.89h-13.74c-18.85,0-34.12,15.28-34.12,34.12v26.28h301.58v-26.28c0-18.85-15.28-34.12-34.12-34.12ZM386.79,165.91H125.21v-6.28c0-7.79,6.34-14.12,14.12-14.12h13.74v2.44c0,6.81,5.52,12.33,12.33,12.33s12.33-5.52,12.33-12.33v-2.44h65.94v2.44c0,6.81,5.52,12.33,12.33,12.33s12.33-5.52,12.33-12.33v-2.44h65.94v2.44c0,6.81,5.52,12.33,12.33,12.33s12.33-5.52,12.33-12.33v-2.44h13.74c7.79,0,14.12,6.34,14.12,14.12v6.28Z"/>
  </g>
</svg>